<svg width="178" height="75" xmlns="http://www.w3.org/2000/svg" xmlns:xlink="http://www.w3.org/1999/xlink" xml:space="preserve" overflow="hidden"><defs><clipPath id="clip0"><rect x="960" y="245" width="178" height="75"/></clipPath><clipPath id="clip1"><rect x="960" y="245" width="178" height="75"/></clipPath><clipPath id="clip2"><rect x="960" y="246" width="178" height="74"/></clipPath><clipPath id="clip3"><rect x="960" y="246" width="178" height="74"/></clipPath></defs><g clip-path="url(#clip0)" transform="translate(-960 -245)"><g clip-path="url(#clip1)"><g clip-path="url(#clip2)"><g clip-path="url(#clip3)"><path d="M14.8333 89C39.5555 40.5445 64.2779 40.5445 89 89 113.722 122.919 138.445 122.919 163.167 89" stroke="#FFFFFF" stroke-width="2.37333" stroke-linecap="round" stroke-linejoin="miter" stroke-miterlimit="4" stroke-opacity="1" fill="none" fill-rule="nonzero" transform="matrix(1 0 0 1.00746 960 199.226)"/><path d="M14.8333 89C39.5555 56.7621 64.2779 56.7621 89 89 113.722 111.567 138.445 111.567 163.167 89" stroke="#DDDDDD" stroke-width="2.01733" stroke-linecap="round" stroke-linejoin="miter" stroke-miterlimit="4" stroke-opacity="1" fill="none" fill-rule="nonzero" transform="matrix(1 0 0 1.00746 960 199.226)"/><path d="M14.8333 89C39.5555 65.2667 64.2779 65.2667 89 89 113.722 105.613 138.445 105.613 163.167 89" stroke="#BBBBBB" stroke-width="1.66133" stroke-linecap="round" stroke-linejoin="miter" stroke-miterlimit="4" stroke-opacity="1" fill="none" fill-rule="nonzero" transform="matrix(1 0 0 1.00746 960 199.226)"/><path d="M14.8333 89C39.5555 71.3979 64.2779 71.3979 89 89 113.722 101.321 138.445 101.321 163.167 89" stroke="#999999" stroke-width="1.30533" stroke-linecap="round" stroke-linejoin="miter" stroke-miterlimit="4" stroke-opacity="1" fill="none" fill-rule="nonzero" transform="matrix(1 0 0 1.00746 960 199.226)"/><path d="M14.8333 89C39.5555 76.1445 64.2779 76.1445 89 89 113.722 97.9988 138.445 97.9988 163.167 89" stroke="#777777" stroke-width="0.949333" stroke-linecap="round" stroke-linejoin="miter" stroke-miterlimit="4" stroke-opacity="1" fill="none" fill-rule="nonzero" transform="matrix(1 0 0 1.00746 960 199.226)"/><path d="M14.8333 89C39.5555 79.1112 64.2779 79.1112 89 89 113.722 95.9221 138.445 95.9221 163.167 89" stroke="#555555" stroke-width="0.771333" stroke-linecap="round" stroke-linejoin="miter" stroke-miterlimit="4" stroke-opacity="1" fill="none" fill-rule="nonzero" transform="matrix(1 0 0 1.00746 960 199.226)"/><path d="M14.8333 89C39.5555 83.0667 64.2779 83.0667 89 89 113.722 93.1533 138.445 93.1533 163.167 89" stroke="#333333" stroke-width="0.593333" stroke-linecap="round" stroke-linejoin="miter" stroke-miterlimit="4" stroke-opacity="1" fill="none" fill-rule="nonzero" transform="matrix(1 0 0 1.00746 960 199.226)"/></g></g></g></g></svg>